<svg width="18" height="18" viewBox="0 0 18 18" fill="none" xmlns="http://www.w3.org/2000/svg">
<path d="M9.01786 4.875C6.73214 4.875 4.91071 6.73214 4.91071 8.98214C4.91071 11.2679 6.73214 13.0893 9.01786 13.0893C11.2679 13.0893 13.125 11.2679 13.125 8.98214C13.125 6.73214 11.2679 4.875 9.01786 4.875ZM9.01786 11.6607C7.55357 11.6607 6.33929 10.4821 6.33929 8.98214C6.33929 7.51786 7.51786 6.33929 9.01786 6.33929C10.4821 6.33929 11.6607 7.51786 11.6607 8.98214C11.6607 10.4821 10.4821 11.6607 9.01786 11.6607ZM14.2321 4.73214C14.2321 4.19643 13.8036 3.76786 13.2679 3.76786C12.7321 3.76786 12.3036 4.19643 12.3036 4.73214C12.3036 5.26786 12.7321 5.69643 13.2679 5.69643C13.8036 5.69643 14.2321 5.26786 14.2321 4.73214ZM16.9464 5.69643C16.875 4.41071 16.5893 3.26786 15.6607 2.33929C14.7321 1.41071 13.5893 1.125 12.3036 1.05357C10.9821 0.982143 7.01786 0.982143 5.69643 1.05357C4.41071 1.125 3.30357 1.41071 2.33929 2.33929C1.41071 3.26786 1.125 4.41071 1.05357 5.69643C0.982143 7.01786 0.982143 10.9821 1.05357 12.3036C1.125 13.5893 1.41071 14.6964 2.33929 15.6607C3.30357 16.5893 4.41071 16.875 5.69643 16.9464C7.01786 17.0179 10.9821 17.0179 12.3036 16.9464C13.5893 16.875 14.7321 16.5893 15.6607 15.6607C16.5893 14.6964 16.875 13.5893 16.9464 12.3036C17.0179 10.9821 17.0179 7.01786 16.9464 5.69643ZM15.2321 13.6964C14.9821 14.4107 14.4107 14.9464 13.7321 15.2321C12.6607 15.6607 10.1607 15.5536 9.01786 15.5536C7.83929 15.5536 5.33929 15.6607 4.30357 15.2321C3.58929 14.9464 3.05357 14.4107 2.76786 13.6964C2.33929 12.6607 2.44643 10.1607 2.44643 8.98214C2.44643 7.83929 2.33929 5.33929 2.76786 4.26786C3.05357 3.58929 3.58929 3.05357 4.30357 2.76786C5.33929 2.33929 7.83929 2.44643 9.01786 2.44643C10.1607 2.44643 12.6607 2.33929 13.7321 2.76786C14.4107 3.01786 14.9464 3.58929 15.2321 4.26786C15.6607 5.33929 15.5536 7.83929 15.5536 8.98214C15.5536 10.1607 15.6607 12.6607 15.2321 13.6964Z" fill="white"/>
</svg>
