<svg width="18" height="18" viewBox="0 0 18 18" fill="none" xmlns="http://www.w3.org/2000/svg">
<path d="M4.57143 17V6.29754H1.25V17H4.57143ZM2.89286 4.86577C3.96429 4.86577 4.82143 3.97092 4.82143 2.89709C4.82143 1.85906 3.96429 1 2.89286 1C1.85714 1 1 1.85906 1 2.89709C1 3.97092 1.85714 4.86577 2.89286 4.86577ZM16.9643 17H17V11.1298C17 8.26622 16.3571 6.04698 13 6.04698C11.3929 6.04698 10.3214 6.94183 9.85714 7.7651H9.82143V6.29754H6.64286V17H9.96429V11.7025C9.96429 10.3065 10.2143 8.9821 11.9286 8.9821C13.6429 8.9821 13.6786 10.557 13.6786 11.8098V17H16.9643Z" fill="white"/>
</svg>
