<svg width="18" height="18" viewBox="0 0 18 18" fill="none" xmlns="http://www.w3.org/2000/svg">
<path d="M16.2701 5.4747C16.9354 4.96867 17.5342 4.36145 18 3.65301C17.4012 3.92289 16.7025 4.1253 16.0039 4.19277C16.7358 3.75422 17.2681 3.07952 17.5342 2.23614C16.8689 2.64096 16.1037 2.94458 15.3386 3.11325C14.6732 2.40482 13.775 2 12.7769 2C10.8474 2 9.28376 3.58554 9.28376 5.54217C9.28376 5.81205 9.31703 6.08193 9.38356 6.35181C6.48924 6.18313 3.89432 4.76627 2.16438 2.64096C1.86497 3.14699 1.69863 3.75422 1.69863 4.42892C1.69863 5.64337 2.29746 6.72289 3.26223 7.36386C2.69667 7.33012 2.13112 7.19518 1.66536 6.9253V6.95904C1.66536 8.67952 2.86301 10.0964 4.45988 10.4337C4.19374 10.5012 3.86106 10.5687 3.56164 10.5687C3.32877 10.5687 3.12916 10.5349 2.89628 10.5012C3.32877 11.9181 4.62622 12.9301 6.15656 12.9639C4.9589 13.9084 3.46184 14.4819 1.8317 14.4819C1.53229 14.4819 1.26614 14.4482 1 14.4145C2.53033 15.4265 4.36008 16 6.35616 16C12.7769 16 16.2701 10.6361 16.2701 5.94699C16.2701 5.77831 16.2701 5.64337 16.2701 5.4747Z" fill="white"/>
</svg>
